<svg xmlns="http://www.w3.org/2000/svg" viewBox="0 0 47 44">
  <path fill="currentColor" d="M 23.0625 -0.0546875 L 22.955078 0.70898438 L 22.191406 1.3632812 L 21.972656 1.4179688 L 22.027344 3.8164062 L 21.154297 3.9804688 L 20.664062 4.3613281 L 20.882812 7.6875 L 20.064453 7.8515625 L 19.628906 8.2871094 L 19.900391 15.103516 L 19.519531 16.248047 L 19.136719 15.375 L 18.591797 14.666016 L 17.666016 14.066406 L 17.228516 13.794922 L 16.902344 13.085938 L 16.357422 12.921875 L 15.974609 13.085938 L 15.648438 12.431641 L 15.8125 11.832031 L 16.519531 11.394531 L 17.011719 11.722656 L 17.011719 12.486328 L 17.720703 13.03125 L 17.775391 8.015625 L 17.066406 8.0703125 L 17.066406 7.0878906 L 14.939453 6.8691406 L 15.103516 8.015625 L 14.175781 8.1777344 L 14.175781 10.359375 L 13.794922 10.359375 L 12.867188 9.4316406 L 12.103516 8.9960938 L 12.048828 8.0703125 L 10.304688 8.015625 L 9.9785156 6.8691406 L 9.1601562 6.9238281 L 8.8867188 6.0527344 L 7.796875 6.1074219 L 7.6875 6.8144531 L 6.9785156 7.2519531 L 6.5429688 7.5234375 L 8.2871094 8.1230469 L 8.3964844 8.8320312 L 8.9960938 9.8691406 L 10.414062 10.195312 L 9.9238281 11.941406 L 11.667969 12.158203 L 12.212891 13.904297 L 11.886719 14.720703 L 13.957031 14.775391 L 14.939453 15.919922 L 15.59375 16.683594 L 14.830078 17.556641 L 16.138672 18.101562 L 16.683594 18.210938 L 16.357422 18.974609 L 14.830078 18.974609 L 13.576172 20.009766 L 5.2890625 20.064453 L 5.015625 21.099609 L 1.1445312 21.044922 L 0.81835938 21.917969 L -0.32617188 22.027344 L -1.0898438 22.462891 L -1.3085938 23.007812 L -0.38085938 23.226562 L 1.1445312 23.117188 L 1.5273438 23.771484 L 4.7988281 23.5 L 5.015625 24.589844 L 13.904297 24.808594 L 14.939453 24.808594 L 14.830078 25.298828 L 13.794922 25.84375 L 14.339844 26.224609 L 15.865234 25.353516 L 16.466797 26.0625 L 11.941406 30.478516 L 11.941406 31.078125 L 11.013672 30.914062 L 10.904297 32.496094 L 10.140625 33.150391 L 8.9414062 34.349609 L 8.7246094 34.839844 L 8.2324219 34.894531 L 7.9609375 35.330078 L 7.796875 36.3125 L 6.8691406 36.203125 L 6.8691406 37.730469 L 8.1230469 37.947266 L 8.7773438 38.056641 L 9.2695312 36.912109 L 10.140625 36.693359 L 10.578125 36.912109 L 12.158203 35.494141 L 13.957031 33.095703 L 14.666016 32.496094 L 15.648438 32.986328 L 17.828125 30.259766 L 18.806641 29.173828 C 18.774694 29.221749 18.551913 29.605469 19.574219 29.605469 C 20.664677 29.605469 21.099609 29.660156 21.099609 29.660156 L 21.373047 30.914062 L 21.044922 40.238281 L 21.208984 40.673828 L 22.082031 40.673828 L 21.972656 42.365234 L 22.300781 42.910156 L 23.117188 42.855469 L 22.955078 44.380859 L 23.335938 44.435547 L 23.716797 43.072266 L 24.808594 42.800781 L 24.644531 38.65625 L 25.625 38.601562 L 25.625 29.224609 C 25.625 29.224609 25.394818 29.12588 25.367188 29.082031 L 25.365234 29.080078 L 25.365234 29.078125 L 25.365234 29.076172 L 25.365234 29.074219 L 25.365234 29.072266 L 25.367188 29.072266 L 25.367188 29.070312 L 25.369141 29.068359 L 25.371094 29.068359 C 25.395986 29.055913 25.495837 29.064119 25.734375 29.115234 C 26.497696 29.278802 27.916016 29.441406 27.916016 29.441406 L 33.095703 33.859375 L 33.859375 34.839844 L 34.894531 34.675781 L 35.384766 35.439453 L 35.548828 36.583984 L 36.039062 35.984375 L 36.476562 36.476562 L 37.076172 36.748047 L 37.785156 36.583984 L 38.056641 37.238281 C 38.055097 37.237642 38.048596 37.236967 38.044922 37.236328 C 38.04392 37.236235 38.040127 37.236328 38.039062 37.236328 C 38.013575 37.239084 37.978264 37.27659 38.056641 37.511719 C 38.165687 37.838857 39.039062 37.621094 39.039062 37.621094 L 39.748047 37.457031 L 39.748047 36.3125 L 38.929688 35.712891 L 38.056641 34.730469 L 36.802734 33.96875 C 36.802734 33.96875 37.075182 32.386554 36.748047 32.332031 C 36.42091 32.277511 31.458984 27.152344 31.458984 27.152344 L 30.697266 26.716797 L 30.75 24.589844 L 41.056641 24.753906 C 41.056641 24.753906 41.110667 23.826007 40.892578 23.771484 C 40.674487 23.716964 45.798828 23.990234 45.798828 23.990234 L 46.126953 22.845703 L 47.707031 22.462891 L 47.597656 21.917969 L 46.34375 21.917969 L 46.181641 20.9375 L 41.21875 20.882812 L 40.892578 19.845703 L 30.914062 19.955078 L 30.75 18.046875 L 32.767578 16.248047 L 32.986328 14.666016 L 33.96875 14.503906 L 35.658203 12.541016 L 36.966797 11.177734 L 36.802734 9.9238281 L 37.785156 9.7597656 L 38.439453 9.2695312 L 38.220703 8.7246094 L 39.09375 8.7773438 L 38.875 5.5605469 L 36.583984 8.2871094 L 35.222656 7.9609375 L 30.697266 13.140625 L 29.550781 13.302734 L 29.169922 14.285156 L 28.679688 14.285156 L 28.242188 15.158203 L 28.080078 15.320312 L 26.988281 15.539062 L 26.0625 15.210938 L 25.625 14.175781 L 25.789062 7.46875 L 24.970703 6.5976562 L 24.425781 6.4882812 L 24.644531 1.8535156 L 24.044922 1.3632812 L 23.990234 0 L 23.0625 -0.0546875 z M 31.623047 6.2148438 L 30.095703 6.3242188 L 29.988281 6.9785156 L 29.060547 7.1425781 L 29.169922 8.6699219 L 27.916016 9.1601562 L 28.296875 10.685547 L 28.351562 11.339844 L 29.388672 11.667969 L 31.568359 9.4316406 L 31.623047 6.2148438 z M 27.861328 11.994141 L 26.988281 12.048828 L 26.662109 13.357422 L 27.480469 13.794922 L 27.152344 12.703125 L 27.751953 12.376953 L 27.861328 11.994141 z M 37.347656 13.957031 L 37.185547 15.265625 L 34.458984 15.429688 L 35.439453 15.757812 L 35.548828 16.519531 L 35.003906 17.611328 L 35.439453 17.666016 C 35.712067 17.720536 37.675781 17.828125 37.675781 17.828125 L 38.275391 16.628906 L 39.910156 16.738281 L 39.800781 14.121094 L 37.347656 13.957031 z M 7.578125 15.375 L 7.6875 16.847656 L 9.3789062 16.738281 L 10.195312 17.121094 L 10.085938 17.882812 L 11.667969 17.611328 L 11.667969 15.375 L 7.578125 15.375 z M 8.5605469 27.316406 L 8.2871094 28.134766 L 7.0878906 28.025391 L 7.0332031 29.714844 C 7.0332031 29.714844 10.84996 29.769696 11.613281 29.824219 L 11.777344 27.970703 L 11.013672 27.316406 L 8.5605469 27.316406 z M 37.457031 27.425781 L 36.367188 28.460938 L 36.257812 29.769531 L 37.839844 30.642578 L 38.984375 30.587891 L 39.800781 29.550781 L 39.855469 28.351562 L 38.710938 27.425781 L 37.457031 27.425781 z M 17.283203 32.986328 L 15.210938 35.439453 L 15.320312 38.65625 L 16.683594 38.111328 L 16.628906 36.257812 L 17.066406 36.203125 L 17.666016 35.603516 L 17.666016 32.986328 L 17.283203 32.986328 z M 29.224609 33.095703 L 29.224609 36.748047 L 30.314453 36.966797 L 30.314453 38.275391 L 31.787109 37.292969 L 31.623047 34.240234 L 30.587891 33.150391 L 29.224609 33.095703 z "/>
</svg>