<svg xmlns="http://www.w3.org/2000/svg" viewBox="0 0 49 41">
  <path fill="currentColor" d="M 25.875 -0.033203125 C 24.700918 -0.059399684 22.290275 0.17777068 21.794922 0.1015625 C 21.134451 -4.84e-05 19.763672 0.9140625 19.763672 0.9140625 C 19.763672 0.9140625 17.985077 2.3876312 16.511719 4.5722656 C 15.038361 6.7569001 16.410156 5.5878906 16.410156 5.5878906 L 16.359375 12.193359 L 16.460938 14.275391 C 16.460938 14.275391 17.32419 15.64834 17.375 15.851562 C 17.425805 16.054784 18.136719 16.917969 18.136719 16.917969 L 19.052734 17.832031 L 20.626953 19.357422 L 20.525391 22.404297 L 20.220703 22.964844 L 18.900391 24.132812 L 17.78125 25.605469 L 16.359375 26.367188 L 15.292969 26.621094 L 14.9375 27.333984 L 12.650391 27.994141 L 10.771484 28.958984 L 9.5 29.974609 L 8.4335938 31.5 L 8.5351562 40.289062 L 8.3320312 40.949219 L 39.832031 41.152344 L 39.832031 39.628906 L 40.847656 39.730469 L 40.847656 36.224609 L 40.796875 33.53125 L 39.933594 32.667969 L 39.78125 30.533203 L 38.255859 28.806641 L 36.173828 27.638672 L 34.699219 26.316406 L 32.160156 26.113281 L 32.109375 25.503906 L 30.890625 24.386719 L 29.517578 23.421875 C 29.517578 23.421875 28.806641 22.709202 28.806641 22.251953 C 28.806641 21.794704 28.857422 20.119141 28.857422 20.119141 L 29.212891 19.255859 L 31.90625 16.714844 L 31.804688 4.0136719 L 30.380859 3.0488281 L 30.228516 2.0839844 L 29.568359 1.1679688 C 29.568359 1.1679688 26.519531 0.45720067 26.519531 0.1015625 C 26.519531 0.01265296 26.266361 -0.024470939 25.875 -0.033203125 z M 40.492188 8.9414062 L 36.427734 9.1953125 L 35.310547 10.365234 L 35.310547 15.75 L 34.648438 15.953125 L 34.800781 17.171875 L 33.835938 17.425781 L 32.921875 18.646484 L 33.785156 20.423828 L 36.123047 21.794922 L 35.818359 25.503906 L 37.087891 26.826172 L 38.357422 26.826172 L 41.964844 29.873047 L 42.21875 35.310547 L 47.707031 35.361328 L 48.316406 35.462891 L 48.367188 30.685547 L 48.316406 29.720703 L 47.402344 27.994141 L 44.962891 25.960938 L 42.320312 24.792969 L 40.746094 24.4375 L 40.796875 23.320312 C 40.796875 23.320313 42.066285 22.25205 42.320312 22.048828 C 42.574339 21.845606 43.947266 20.626953 43.947266 20.626953 L 44.099609 14.173828 L 43.541016 13.412109 C 43.541016 13.412109 43.388691 12.193505 43.337891 11.888672 C 43.287085 11.583839 42.117188 10.263672 42.117188 10.263672 L 40.492188 8.9414062 z M 8.2382812 9.3339844 C 8.1378859 9.3429398 8.0955161 9.3598613 8.0839844 9.3808594 C 8.051079 9.4672029 8.5084805 9.6443086 7.875 9.8554688 C 6.8080855 10.211107 7.6198661 10.16181 6.0957031 10.771484 C 4.5715394 11.381149 5.4870058 11.481623 4.0644531 13.158203 C 3.5865642 13.721429 3.4231045 13.93555 3.4179688 13.970703 L 3.4179688 13.972656 L 3.4199219 13.974609 L 3.4199219 13.976562 L 3.421875 13.976562 L 3.4238281 13.976562 L 3.4238281 13.974609 L 3.4257812 13.974609 C 3.5018346 13.941299 4.0136719 13.412109 4.0136719 13.412109 L 3.7597656 18.951172 L 4.7753906 18.900391 L 4.8261719 20.169922 L 7.46875 22.251953 L 7.4179688 25.199219 L 6.4023438 25.402344 L 5.1816406 26.113281 L 3.3535156 26.724609 C 3.3535156 26.724609 2.2855435 27.486087 1.4726562 27.994141 C 0.65976908 28.502196 0.15234375 29.365234 0.15234375 29.365234 L -0.55859375 30.025391 L -0.609375 35.666016 L -0.05078125 35.615234 L 5.4355469 35.615234 L 6.0957031 35.666016 L 5.8925781 30.941406 L 6.1992188 29.974609 L 9.5 26.724609 L 10.873047 26.673828 L 11.076172 25.859375 L 12.751953 25.300781 L 12.802734 22.201172 L 13.564453 21.642578 L 15.039062 20.271484 L 15.75 19.763672 L 15.800781 17.933594 L 14.9375 17.730469 L 14.734375 16.359375 L 13.564453 16.105469 L 13.361328 9.6523438 C 13.361328 9.6523437 11.786318 9.4492671 9.3476562 9.3476562 C 8.7379908 9.3222535 8.4073681 9.3189015 8.2382812 9.3339844 z "/>
</svg>