<svg xmlns="http://www.w3.org/2000/svg" viewBox="0 0 48 48">
  <path fill="currentColor" d="m 5.676131,43.972053 -2.8021406,-3.08954 6.6101779,-6.825727 0.7184977,-0.574798 0.07185,-1.436995 -3.3050893,-2.442892 0.1436995,-1.796244 0.2155493,-0.862197 1.2214459,-0.862197 h 1.5806946 l 1.939944,2.227342 0.502948,0.646648 3.951737,-4.095436 L 17.315792,23.92597 13.723304,20.477182 8.9093702,15.735097 7.472375,15.519548 5.8198305,14.010703 5.388732,10.777464 4.2391358,7.6879243 3.5206382,2.5147416 7.2568257,3.4487885 c 0,0 5.8916803,2.1554928 6.1072293,2.4428918 0.21555,0.287399 10.202666,10.5619147 10.202666,10.5619147 l 6.179079,-6.03538 1.077747,-2.0117931 3.08954,-2.2273426 10.058966,-3.9517368 -1.652545,8.2627225 -0.646647,0.790347 -0.359249,2.371042 -10.705614,9.699718 4.023586,5.316882 0.287399,0.790347 1.365146,-1.508844 0.574798,-0.790348 -0.1437,-0.934047 1.221446,-1.221446 1.436995,0.574798 1.436995,1.293296 0.862198,0.574798 -0.07185,2.011793 -2.873991,3.01769 v 1.293296 l 5.532432,5.173183 0.862197,0.718497 -3.879887,4.742084 -6.179079,-6.969426 -0.718498,-0.862197 -1.436995,-0.07185 -3.448789,4.382835 -1.221445,-0.143699 -2.658442,-2.442892 0.07185,-1.149596 3.448789,-3.08954 -4.957634,-4.239136 -4.310985,4.023587 -0.287399,1.005896 0.287399,1.436996 3.01769,2.514741 -3.16139,3.08954 -1.293296,-0.718498 -3.592488,-3.951736 -0.646647,-0.790348 h -1.508845 z"/>
</svg>