<svg xmlns="http://www.w3.org/2000/svg" viewBox="0 0 456 492">
  <path fill="currentColor" fill-rule="evenodd" d="m 217.86643,204.8257 -2.58659,-0.16166 -1.6705,-0.8622 -3.23324,-3.23324 v -2.47881 l -2.1555,-2.20938 -2.58659,-0.8622 -1.72439,-0.53887 -1.50885,-1.67051 -0.32332,-0.53887 0.26944,-4.95764 1.77828,-0.21555 2.26327,1.18553 1.2394,1.2394 0.75443,-0.64664 0.86219,-1.13164 -0.4311,-1.88605 -2.69436,-1.18552 -2.64048,-1.23941 -1.83217,-2.80214 -0.80831,-2.31716 0.32333,-2.85603 -0.4311,-1.02386 0.59276,-2.04771 1.83217,-2.5866 1.40107,-3.44878 2.64047,-2.1555 0.4311,-1.07774 1.45496,-1.07775 0.91609,0.70054 -0.0539,1.40107 v 1.77828 l -1.02386,0.80831 -1.02386,1.72439 -0.4311,3.01769 0.48499,2.64048 1.29329,0.10778 -0.32332,1.34718 0.75442,1.07774 2.31716,1.13164 1.77828,-1.13164 1.45496,-1.45495 c 0,0 -2.26327,1.13163 0.96997,-0.48499 3.23324,-1.61662 7.16701,-1.50884 7.16701,-1.50884 l 4.58042,0.32332 2.69437,0.91608 2.69436,2.90992 c 0,0 -0.53887,-0.10777 0,0.0539 0.53888,0.16166 1.2933,0.26943 1.2933,0.26943 l 2.64048,-1.34718 c 0,0 1.34718,-2.37104 1.61662,-2.47882 0.26944,-0.10777 0.8622,-3.3949 0.8622,-3.3949 l -0.37722,-2.20938 -1.34718,-2.42493 -0.70053,-0.48498 -0.53888,-0.75443 -0.59276,-1.13163 0.26944,-1.40107 1.13163,-0.48499 1.50885,0.21555 0.48498,1.18553 -0.26943,0.75442 c 0,0 1.07774,1.07774 1.18552,1.29329 0.10777,0.21555 1.77828,2.37105 1.77828,2.37105 0,0 0.26944,-0.59277 1.56273,1.61662 1.2933,2.20938 1.88606,3.44878 1.67051,4.84985 -0.21555,1.40107 -0.10778,6.14316 -0.10778,6.14316 l -1.40107,2.26327 -1.77828,1.45495 c 0,0 -1.72439,1.02386 -1.93994,1.18552 -0.21555,0.16167 -1.99383,0.37722 -1.99383,0.37722 l -0.59276,0.75442 -0.16166,2.42493 0.80831,1.29329 2.37104,-0.59276 2.20938,-1.77828 0.53887,-0.10777 0.4311,1.02386 v 3.07157 l -2.80214,3.12547 -2.04772,0.21555 c 0,0 0.80831,-0.80831 -0.32332,0.4311 -1.13164,1.2394 -1.88606,2.80214 -1.88606,2.80214 l -0.10777,1.34718 -4.90375,5.28096 -5.06541,0.0539 -0.32332,-1.99383 0.70053,-1.23941 0.26944,-7.92143 2.37104,-0.16166 2.31716,-2.47882 1.07774,-1.2933 -0.26943,-2.69436 -2.1555,-0.26944 -0.91608,1.2933 -1.99383,0.32332 -1.34718,0.8622 -0.91609,0.37721 -0.59276,15.41177 -3.61045,-0.0539 -0.26944,-9.96916 -0.86219,-0.75442 0.0539,-5.22707 c 0,0 -0.37721,-0.10778 -1.45495,-0.0539 -1.07775,0.0539 -1.88606,-0.53887 -1.88606,-0.53887 l -0.96997,-1.2933 -0.75442,-0.53887 -1.99384,0.16166 c 0,0 -0.16166,-0.10777 -0.43109,0.37721 -0.26944,0.48499 -0.32333,1.07775 -0.32333,1.07775 l 0.37721,0.91608 1.23941,1.13164 4.04155,3.93377 1.18552,0.37721 0.59276,0.48499 0.0539,0.8622 -0.32332,0.21554 0.0539,8.40643 -0.75442,0.70053 z"/>
</svg>