<svg xmlns="http://www.w3.org/2000/svg" viewBox="0 0 41 40">
  <path fill="currentColor" d="M -0.64453125 -1.7851562 L -0.59570312 -0.79296875 L 0.39648438 1.1894531 L 1.0898438 1.4863281 L 1.3378906 3.6679688 L 2.1816406 4.1640625 L 3.1230469 5.3027344 L 3.171875 6.2949219 L 4.9570312 8.1777344 L 5.2539062 8.4765625 L 6.4941406 8.4765625 L 6.5429688 9.4667969 L 5.2050781 10.259766 L 5.2050781 12.144531 L 5.0566406 12.886719 L 7.0390625 12.738281 L 7.3847656 13.431641 L 9.7636719 16.109375 L 11.003906 17.744141 L 14.175781 17.794922 L 14.224609 18.984375 L 12.441406 20.669922 L 11.548828 22.353516 L 9.21875 24.238281 L 8.6738281 23.941406 L 6.1464844 21.015625 L 3.0722656 23.394531 L 3.1230469 25.625 L 7.2871094 29.244141 L 5.5019531 30.929688 L 4.015625 32.21875 L 2.578125 31.970703 L 0.296875 34.25 L 0.048828125 35.191406 L -1.140625 35.6875 L 3.2714844 40.544922 L 3.7167969 39.603516 L 3.7675781 37.96875 L 9.3671875 32.615234 L 11.748047 32.564453 L 13.53125 34.994141 L 13.630859 35.935547 L 14.720703 37.076172 L 17.347656 34.498047 L 18.191406 34.052734 L 18.091797 33.060547 L 17.050781 31.771484 L 15.564453 30.582031 L 15.761719 29.541016 L 16.902344 28.947266 L 21.164062 24.832031 L 21.611328 24.386719 L 29.740234 16.357422 L 31.226562 15.712891 L 32.466797 14.869141 L 35.490234 11.697266 L 36.728516 10.408203 L 37.96875 9.8632812 L 37.96875 8.1289062 L 38.662109 6.7910156 L 39.058594 4.4121094 L 39.652344 0.39648438 L 39.851562 -0.9921875 L 35.191406 -0.69335938 L 32.712891 0.296875 L 31.029297 0.9921875 L 26.417969 5.1054688 L 26.021484 6.6425781 L 18.736328 14.126953 L 18.140625 14.126953 L 17.744141 13.185547 L 18.042969 11.994141 L 16.357422 12.09375 L 14.820312 10.507812 L 14.820312 8.8730469 L 14.126953 8.921875 L 13.927734 7.484375 L 13.234375 7.2363281 L 12.886719 6.4433594 L 12.837891 5.5019531 L 11.945312 5.6503906 L 9.8632812 4.9570312 L 8.5253906 3.9648438 L 7.9296875 3.9648438 L 7.3359375 2.9238281 L 6.5917969 1.9335938 L 5.6015625 2.0820312 L 4.5605469 0.84179688 L 3.6191406 0.34765625 L 3.5683594 -0.74414062 L 3.2226562 -1.5371094 L -0.64453125 -1.7851562 z M 26.716797 21.015625 L 22.304688 25.476562 L 22.205078 27.410156 L 24.535156 29.392578 L 25.476562 29.888672 L 25.378906 30.78125 L 23.048828 32.763672 L 23.148438 33.65625 L 22.353516 34.449219 L 22.056641 34.894531 L 23.494141 36.927734 L 24.634766 35.886719 L 25.378906 37.076172 L 29.095703 33.109375 L 31.275391 32.863281 L 37.570312 39.703125 L 40.792969 36.283203 L 34.001953 29.9375 L 33.953125 28.103516 L 36.728516 25.625 L 36.777344 23.246094 L 35.291016 21.859375 L 33.457031 21.957031 L 30.384766 25.03125 L 28.798828 23.494141 L 29.044922 22.15625 L 27.757812 21.859375 L 27.806641 21.214844 L 26.716797 21.015625 z "/>
</svg>